<svg xmlns="http://www.w3.org/2000/svg" width="119" height="23" viewBox="0 0 119 23">
    <g fill="#000" fill-rule="nonzero">
        <path d="M36.25 5.336h-8.512a.8.8 0 0 0-.8.8v.947a.8.8 0 0 0 .8.8h1.579c.618 0 1.12.502 1.12 1.12v7.168a.8.8 0 0 0 .8.8h1.513a.8.8 0 0 0 .8-.8V8.683a.8.8 0 0 1 .8-.8h1.9a.8.8 0 0 0 .8-.8v-.945a.8.8 0 0 0-.8-.802zM44.027 8.131c-1.29 0-2.24.66-2.637 1.773h-.09V6.456a1.12 1.12 0 0 0-1.12-1.12h-.782a1.12 1.12 0 0 0-1.12 1.12v9.395c0 .619.502 1.12 1.12 1.12h.896a1.12 1.12 0 0 0 1.12-1.12v-3.789c0-.862.506-1.385 1.272-1.385.8 0 1.256.523 1.25 1.385v3.79c0 .618.501 1.12 1.12 1.12h.896a1.12 1.12 0 0 0 1.12-1.12v-4.449c.006-1.907-1.198-3.272-3.045-3.272zM52.15 8.158a4.253 4.253 0 0 0-3.84 4c-.195 3.104 1.54 4.96 4.48 4.96 1.996 0 3.404-.787 4-2.08a.64.64 0 0 0-.587-.894h-1.632a.662.662 0 0 0-.521.27c-.245.32-.679.503-1.192.503-.933 0-1.479-.613-1.479-1.455v-.136h5.053a.64.64 0 0 0 .64-.64v-.088c0-2.968-1.957-4.705-4.922-4.44zm-.76 3.45c.018-.755.64-1.272 1.41-1.272.77 0 1.37.523 1.386 1.272H51.39zM80.104 8.158a4.25 4.25 0 0 0-3.84 4c-.195 3.104 1.538 4.96 4.48 4.96 1.995 0 3.403-.787 4-2.08a.64.64 0 0 0-.589-.894h-1.617a.658.658 0 0 0-.522.27c-.246.32-.68.503-1.194.503-.93 0-1.476-.613-1.476-1.455v-.136h5.041a.64.64 0 0 0 .64-.64v-.088c0-2.968-1.958-4.705-4.923-4.44zm-.758 3.45c.017-.755.64-1.272 1.408-1.272.768 0 1.37.523 1.387 1.272h-2.795z"/>
        <rect width="3.136" height="11.635" x="86.301" y="5.338" rx="1.12"/>
        <rect width="3.136" height="11.635" x="91.027" y="5.338" rx="1.12"/>
        <path d="M99.958 8.131c-2.84 0-4.521 1.82-4.521 4.501 0 2.682 1.683 4.5 4.521 4.5 2.839 0 4.522-1.82 4.522-4.5 0-2.68-1.68-4.5-4.522-4.5zm.024 6.682c-.841 0-1.34-.835-1.34-2.205s.499-2.203 1.34-2.203c.8 0 1.295.835 1.295 2.203 0 1.368-.5 2.205-1.295 2.205zM117.205 8.245h-.765a1.12 1.12 0 0 0-1.102.921l-.79 4.35h-.066l-.96-4.391a1.12 1.12 0 0 0-1.093-.88h-1.235c-.53 0-.988.372-1.096.891l-.928 4.427h-.068l-.835-4.4a1.12 1.12 0 0 0-1.1-.913h-.767a1.12 1.12 0 0 0-1.086 1.392l1.622 6.486a1.12 1.12 0 0 0 1.086.848h1.647a1.12 1.12 0 0 0 1.083-.835l1.008-3.84h.091l1.008 3.84c.13.492.575.835 1.083.835h1.648c.514 0 .962-.35 1.087-.848l1.614-6.485a1.12 1.12 0 0 0-1.086-1.398zM9.898 0c-2.639 0-5.164 1.318-7.11 3.712C1.017 5.892 0 8.65 0 11.28s1.016 5.387 2.789 7.566c1.945 2.4 4.47 3.714 7.109 3.714 5.294 0 12.662-5.685 12.662-11.28S15.2 0 9.898 0zm0 19.36c-3.71 0-6.698-4.42-6.698-8.08C3.2 6.8 6.864 3.2 9.898 3.2c3.65 0 9.462 4.411 9.462 8.08 0 3.669-5.813 8.08-9.462 8.08zM74.27 5.496h-2.59a.8.8 0 0 0-.74.496l-2.5 6.094h-.136l-2.5-6.094a.8.8 0 0 0-.742-.496h-2.6a.8.8 0 0 0-.8.8v10.035a.8.8 0 0 0 .8.8h1.492a.8.8 0 0 0 .8-.8v-5.973h.09l2.4 6.172a.8.8 0 0 0 .746.51h.77a.8.8 0 0 0 .746-.509l2.392-6.126h.09v5.92a.8.8 0 0 0 .8.8h1.49a.8.8 0 0 0 .8-.8V6.296a.8.8 0 0 0-.808-.8z"/>
    </g>
</svg>
